<svg xmlns="http://www.w3.org/2000/svg" xmlns:xlink="http://www.w3.org/1999/xlink" viewBox="0 0 256 256"><defs><style>.cls-1,.cls-3{fill:none;}.cls-2{clip-path:url(#clip-path);}.cls-3{stroke:#545454;stroke-miterlimit:10;stroke-width:30px;}.cls-4{fill:#20252a;}.cls-5{fill:#863d0c;}.cls-6{fill:#1d663c;}.cls-7{fill:#1a547a;}</style><clipPath id="clip-path"><circle id="SVGID" class="cls-1" cx="127" cy="-147.94" r="128"/></clipPath></defs><g id="User"><g class="cls-2"><path class="cls-3" d="M29.78-29.63l5.64-33.92A41.31,41.31,0,0,1,82.81-97.43l69.12,11.49a41.32,41.32,0,0,1,33.88,47.4S185.05-1.32,175,.87C134.16,9.75,27.37-15.17,29.78-29.63Z"/></g></g><g id="Games"><rect class="cls-4" x="6.85" y="0.23" width="242.31" height="255.54" rx="27.49"/><rect class="cls-5" x="20.36" y="18.65" width="94.43" height="58.48" rx="17.32"/><rect class="cls-6" x="140.13" y="18.65" width="94.43" height="58.48" rx="17.32"/><rect class="cls-6" x="20.36" y="97.64" width="94.43" height="58.48" rx="17.32"/><rect class="cls-7" x="140.13" y="97.64" width="94.43" height="58.48" rx="17.32"/><rect class="cls-7" x="20.36" y="176.63" width="94.43" height="58.48" rx="17.32"/><rect class="cls-5" x="140.13" y="176.63" width="94.43" height="58.48" rx="17.32"/></g></svg>